PathFileType	4	(X/Y/Z)	/Users/mathieubourgeois/Desktop/Analyse/Traitement/Sujet_04/Transformed_Static_Sujet_04_Tpose.trc
DataRate	CameraRate	NumFrames	NumMarkers	Units	OrigDataRate	OrigDataStartFrame	OrigNumFrames
120.000000	120.000000	5	36	mm	120.000000	259	296
Frame#	Time	RFHD			RANE			STRN			LANI			LKNE			T10			RHUM			RWRB			C7			LFWT			LTOE			RTOE			LWRA			LBWT			RBWT			RFWT			LKNI			RKNI			RKNE			LANE			RANI			LHEE			RHEE			LHUM			LRAD			RRAD			RWRA			LWRB			LFHD			LBHD			RBHD			RSHO			LSHO			CLAV			LCAR			RCAR			
		X1	Y1	Z1	X2	Y2	Z2	X3	Y3	Z3	X4	Y4	Z4	X5	Y5	Z5	X6	Y6	Z6	X7	Y7	Z7	X8	Y8	Z8	X9	Y9	Z9	X10	Y10	Z10	X11	Y11	Z11	X12	Y12	Z12	X13	Y13	Z13	X14	Y14	Z14	X15	Y15	Z15	X16	Y16	Z16	X17	Y17	Z17	X18	Y18	Z18	X19	Y19	Z19	X20	Y20	Z20	X21	Y21	Z21	X22	Y22	Z22	X23	Y23	Z23	X24	Y24	Z24	X25	Y25	Z25	X26	Y26	Z26	X27	Y27	Z27	X28	Y28	Z28	X29	Y29	Z29	X30	Y30	Z30	X31	Y31	Z31	X32	Y32	Z32	X33	Y33	Z33	X34	Y34	Z34	X35	Y35	Z35	X36	Y36	Z36	

260	2.158333333333333	-657.6343383789062	1780.592407226562	445.2419433593748	-778.8518676757812	91.28942108154298	190.2313079833984	-590.4688720703125	1330.450073242188	443.6851806640624	-553.8160400390625	99.93161773681642	240.3822479248046	-433.4582824707032	541.9925537109375	261.9283447265624	-588.4572143554688	1316.042846679688	207.034454345703	-1052.143920898438	1423.016479492188	304.8252258300779	-1327.14453125	1505.970581054688	279.8461303710935	-598.5523681640625	1592.290771484375	265.0729980468748	-465.8699645996094	1063.849487304688	396.3572692871093	-484.3178100585938	35.57429504394534	420.8292236328124	-763.4559326171875	36.81214523315433	426.5308837890624	119.1706848144531	1580.058471679688	281.398956298828	-531.9472045898438	1111.160522460938	200.5576324462889	-662.3748779296875	1110.278564453125	191.3310546874999	-760.4873657226562	1075.865234375	372.3409118652342	-553.4468994140625	500.6615295410156	262.7468872070311	-666.658203125	503.7355041503906	285.4989929199218	-779.7716674804688	547.077880859375	278.1846618652342	-466.2498168945312	85.92317962646486	190.8684539794921	-690.2727661132812	97.46117401123048	228.9445037841796	-526.04541015625	63.24513626098634	152.6977996826171	-732.2283325195312	71.99447631835939	150.2909393310546	-134.2037048339844	1441.002197265625	298.0296630859374	-133.1046295166016	1487.174072265625	241.2658843994139	-1059.78076171875	1472.909912109375	254.9933319091795	-1310.865844726562	1552.185791015625	328.7388610839841	140.386962890625	1503.17626953125	265.3883666992186	-525.2123413085938	1775.134033203125	431.3941040039061	-556.5326538085938	1736.244384765625	274.4544372558592	-692.2310180664062	1738.08544921875	298.368194580078	-742.9151611328125	1575.71875	287.7338256835935	-443.8613891601563	1590.572875976562	304.5949096679686	-588.4811401367188	1498.882446289062	398.5880126953123	232.5313720703125	1578.092529296875	249.4866333007812	-1420.982299804688	1557.767333984375	297.1232910156247	
261	2.166666666666667	-657.67138671875	1780.55712890625	445.2305297851561	-778.87109375	91.28585052490236	190.2373962402343	-590.4854736328125	1330.459838867188	443.6948242187499	-553.8015747070312	99.91992950439455	240.3514099121093	-434.1814270019532	542.5715942382812	262.636749267578	-588.4857177734375	1316.02978515625	207.024200439453	-1052.134033203125	1422.9677734375	304.8188171386716	-1327.150512695312	1505.829833984375	279.7975158691403	-598.5517578125	1592.27490234375	265.0471801757811	-465.9015197753907	1063.830810546875	396.3351745605468	-484.3150634765626	35.57975769042972	420.8197937011718	-763.4517822265625	36.81507492065433	426.5376586914061	119.165542602539	1580.124755859375	281.5313110351561	-531.986572265625	1111.143432617188	200.5407562255858	-662.4080810546875	1110.269653320312	191.3221130371092	-760.5198364257812	1075.8515625	372.3397521972655	-553.4739379882812	500.6521911621094	262.7471923828124	-666.68505859375	503.75732421875	285.5265808105468	-779.8006591796875	547.081787109375	278.1866149902342	-466.2491149902344	85.93459320068361	190.8590087890624	-690.2771606445312	97.46447753906251	228.9427795410155	-526.0448608398438	63.24320983886719	152.6898956298828	-732.2239990234375	71.99410247802736	150.2921295166015	-134.2024078369141	1441.048706054688	298.0781249999999	-133.0836181640625	1487.227905273438	241.3227233886718	-1059.778076171875	1472.840942382812	254.9932556152341	-1310.902709960938	1552.079467773438	328.6895751953122	140.3896179199218	1503.260009765625	265.4987487792968	-525.2495727539062	1775.144653320312	431.3947448730467	-556.5384521484375	1736.265625	274.4457397460936	-692.2489013671875	1738.077392578125	298.3551330566405	-742.920166015625	1575.7255859375	287.7143249511716	-443.8704833984376	1590.576049804688	304.5852966308592	-588.502685546875	1498.8984375	398.562042236328	232.5469818115234	1578.155517578125	249.6857147216796	-1421.00244140625	1557.61083984375	297.0395812988278	
262	2.175	-657.7271118164062	1780.548461914062	445.2052307128905	-778.859619140625	91.27921295166017	190.2543182373046	-590.5068969726562	1330.461547851562	443.7083129882811	-553.803955078125	99.92150878906251	240.3559112548828	-434.2186279296876	542.5738525390625	262.6476745605468	-588.5172729492188	1316.025268554688	206.9918670654295	-1052.12353515625	1422.919677734375	304.8227539062498	-1327.171997070312	1505.691040039062	279.7535400390622	-598.5328369140625	1592.266357421875	265.0169677734373	-465.9403076171876	1063.817260742188	396.3284301757811	-484.3215332031251	35.56998062133792	420.8230895996093	-763.453125	36.81184387207034	426.533966064453	119.1581726074218	1580.185791015625	281.6610107421874	-532.0294189453125	1111.136596679688	200.541046142578	-662.4515991210938	1110.256713867188	191.3158111572264	-760.5447998046875	1075.85400390625	372.3367309570311	-553.4849243164062	500.644775390625	262.7423400878905	-666.7009887695312	503.7516479492188	285.5101318359374	-779.8240356445312	547.0855712890625	278.1915893554686	-466.2445983886719	85.9419403076172	190.8567199707031	-690.2869262695312	97.48020935058595	228.9501647949218	-526.04638671875	63.24073791503907	152.6878204345703	-732.2318725585938	71.99073028564455	150.2937011718749	-134.2147216796875	1441.088989257812	298.1063537597655	-133.0747222900391	1487.293579101562	241.3690948486327	-1059.773681640625	1472.777954101562	254.9797210693357	-1310.922607421875	1551.990356445312	328.638977050781	140.3821411132812	1503.340576171875	265.5858459472655	-525.3008422851562	1775.138549804688	431.4046630859373	-556.5555419921875	1736.291625976562	274.4367065429686	-692.2564086914062	1738.07373046875	298.2985534667967	-742.9320068359375	1575.733154296875	287.6967773437498	-443.8818054199219	1590.57421875	304.5972290039061	-588.5231323242188	1498.910522460938	398.5379943847655	232.5625610351562	1578.2275390625	249.8334197998046	-1421.028076171875	1557.4443359375	296.9436035156247	
263	2.183333333333333	-657.7775268554688	1780.535888671875	445.161651611328	-778.8712768554688	91.2753143310547	190.2521667480468	-590.5297241210938	1330.472900390625	443.7164916992186	-553.797119140625	99.92410278320314	240.3759155273437	-434.2502441406251	542.576904296875	262.6463623046874	-588.541748046875	1316.026245117188	206.9870147705076	-1052.117309570312	1422.864868164062	304.836975097656	-1327.17919921875	1505.572998046875	279.7033386230466	-598.5230102539062	1592.271728515625	265.0086364746092	-465.9694213867188	1063.813110351562	396.313507080078	-484.3161315917969	35.56329345703128	420.8244934082031	-763.45068359375	36.80753326416018	426.5438842773436	119.1556320190429	1580.23974609375	281.7713928222655	-532.0597534179688	1111.130004882812	200.5310211181639	-662.500244140625	1110.247680664062	191.3123931884764	-760.58642578125	1075.857666015625	372.349639892578	-553.50830078125	500.6536865234375	262.7423400878905	-666.7246704101562	503.7622375488281	285.5057373046874	-779.848388671875	547.081298828125	278.1722412109373	-466.091552734375	85.56859588623048	191.0536346435546	-690.2899780273438	97.48081970214845	228.9488525390624	-526.042236328125	63.23213958740235	152.6909637451171	-732.2250366210938	71.9762649536133	150.3017425537109	-134.2144927978516	1441.117065429688	298.1267700195311	-133.0687866210938	1487.358520507812	241.3981628417968	-1059.770629882812	1472.713256835938	254.9543609619138	-1310.956176757812	1551.885498046875	328.5797729492185	140.3798828125	1503.411987304688	265.6547546386718	-525.3448486328125	1775.146240234375	431.406524658203	-556.542236328125	1736.305053710938	274.4492187499998	-692.2581176757812	1738.072631835938	298.2471618652342	-742.9413452148438	1575.741455078125	287.673889160156	-443.9060363769532	1590.598388671875	304.6394042968748	-588.5504150390625	1498.926025390625	398.5141296386717	232.5701446533203	1578.285766601562	249.9763031005859	-1421.051025390625	1557.275512695312	296.8439025878903	
264	2.191666666666666	-657.8416748046875	1780.533935546875	445.1150512695311	-778.8731689453125	91.28588867187501	190.2421874999999	-590.5384521484375	1330.472778320312	443.719512939453	-553.7902221679688	99.92530822753908	240.393325805664	-434.2770996093751	542.5866088867188	262.6705932617186	-588.5662231445312	1316.035034179688	206.9696502685545	-1052.114013671875	1422.81396484375	304.8254699707029	-1327.193115234375	1505.44775390625	279.6582336425778	-598.522705078125	1592.2880859375	265.0150146484373	-465.9898681640626	1063.808837890625	396.3102416992186	-484.3171386718751	35.56229019165042	420.8233032226562	-763.4531860351562	36.81478118896487	426.5429382324218	119.1560516357422	1580.293334960938	281.8761596679686	-532.0999755859375	1111.127319335938	200.5156402587889	-662.5313720703125	1110.248413085938	191.303009033203	-760.6212768554688	1075.858032226562	372.3376464843748	-553.530517578125	500.6433410644531	262.751251220703	-666.744384765625	503.7720642089844	285.4912109374999	-779.8753662109375	547.08447265625	278.1535034179686	-466.2503356933594	85.91772460937501	190.8731994628906	-690.3009643554688	97.48253631591798	228.9362182617187	-526.0481567382812	63.23986816406251	152.694595336914	-732.2329711914062	71.9890823364258	150.2984619140624	-134.2119445800782	1441.163330078125	298.1563415527343	-133.0675811767578	1487.418090820312	241.4561920166014	-1059.773315429688	1472.647705078125	254.945373535156	-1310.9853515625	1551.767456054688	328.5030822753903	140.3703002929687	1503.466796875	265.7427673339843	-525.4096069335938	1775.171508789062	431.3990478515623	-556.5222778320312	1736.29931640625	274.4433288574217	-692.2481689453125	1738.061157226562	298.180206298828	-742.9545288085938	1575.745483398438	287.661682128906	-443.9339904785157	1590.63232421875	304.6632995605467	-588.57373046875	1498.935668945312	398.5147399902342	232.5830841064453	1578.35009765625	250.0815734863281	-1421.07373046875	1557.110717773438	296.752014160156	
